<svg xmlns="http://www.w3.org/2000/svg" xmlns:xlink="http://www.w3.org/1999/xlink" id="Capa_1" x="0" y="0" version="1.1" viewBox="0 0 800 568.2" xml:space="preserve" style="enable-background:new 0 0 800 568.2"><g><path d="M793.1,274.9c-12-60.6-39.7-121.1-89.6-168.6c-44.9-42.8-105.9-74.4-172.5-91.2C388-21.3,220.7,9.7,111.2,91.2 C59.1,130.1,21.7,180.8,6.9,236.4c-15.3,57.4-5.2,117.4,30.7,168.9c8.7,12.4,18.9,24,30.1,35.1c1.2,1.2,2.7,1.5,4,1.3 c0.1,0.7,0.6,1.6,1.8,2.2c29.1,18.7,64.6,27.9,100.5,34.8c40.3,7.7,81,13.6,122,18c83.2,8.7,167.6,10.6,251.3,5.3 c40.9-2.5,81.7-6.8,122.2-12.5c20.8-3,41.5-6.5,62-10.3c15.6-3,36-4.7,45.6-16.5c4.1-5.2,6-11.2,7.8-17.1 c2.5-8.3,4.7-16.7,6.6-24.9c3.7-16.2,6.2-32.8,7.7-49.3C801.4,339.3,799.5,306.8,793.1,274.9z" style="fill:#56597a"/><path d="M781.6,466.7c-10.3-16.7-29.8-31.1-49.9-42.8c-19.6-11.5-41.9-20.8-65.9-27.4c-18.7-5.3-38.1-8.6-57.8-10.9 c-51.2-11.5-105.6-16.4-159.6-14.2c-62.8-1.8-126,0.3-188.3,6.2c-31.6,3-63,7.1-94.1,12c-27.1,4.4-55,9.6-78.3,20.5 c-22.3,10.5-39.2,25.2-54.1,40.3c-14.8,14.9-27,32.8-17.7,50.9c18.9,36.6,89.1,44,137.8,50.9c123,17.7,250.4,20.1,375.3,10.5 c30.5-2.4,60.8-5.3,91-9s61.2-7.2,90.7-13.3c24.3-5,47.8-13,63.1-27.1C788.8,499.5,791.5,482.7,781.6,466.7z" style="fill:#b4c7e7"/><path d="M591.6,193.2c-1.2,0-2.5,0.1-3.5,0.4c-5.8-0.1-8.9-5.8-6.8-11.5c0.6-1.5,0.3-2.7-0.4-3.5c0-0.1,0-0.4,0-0.6 c0.4-5.5-8.1-5.5-8.6,0c-0.6,6.2-3.5,11.8-8.7,15.3c-4.6,3.2-0.7,9.4,4.3,7.4c4.4-1.9,6.5,5.6,7.2,8.4c1,3.8,7.5,4.3,8.3,0 c0.6-3.5,2.7-6.2,5.9-6.9c1,0,2.2-0.1,3.2-0.4C597.3,200.4,596.3,193,591.6,193.2z" style="fill:#f7d06f"/><path d="M363.2,294.3c-0.7-0.1-1.5-0.1-2.2-0.1c-4.9-0.7-7.4-5.2-5.6-10.3c1-3.1-1.3-5-3.8-5.2 c-2.8-1.6-7.4,0.7-6.3,4.9c1,4.7-1.3,9.1-5.2,11.4c-1.3,0.3-2.7,0.7-4,1.6c-4.1,2.5-1.5,8.9,3.2,7.8c1-0.3,2.1-0.6,3-1 c2.7,0.1,4.7,3.8,6,5.9c1.8,2.8,7.2,2.8,7.8-1c0.4-3.2,2.4-5,5.2-5.3c0.7,0,1.5,0,2.2,0C368.8,302.4,368.5,295,363.2,294.3z" style="fill:#f7d06f"/><path d="M188.7,143.2c-5.9-0.6-11.2-3.5-14.9-8.3c-2.8-3.7-8.9-1.8-7.8,3.2c0.1,0.3,0.1,0.7,0.3,1 c-0.3,1.8-1.2,3.2-2.4,4.3c-2.2,0.4-4.3,1.5-6.5,3.2c-3.5,3,0.4,7.8,4.1,7.1c2.1-0.4,4-1.2,5.8-2.2c3.7,0.7,7.1,6.2,8.7,8.7 c2.4,3.8,7.5,1.9,8-2.2c0.3-3.5,2.7-5.9,6-6.8C194.7,150.3,193.2,143.6,188.7,143.2z M176.9,148.2c0.6,0.3,1.2,0.6,1.9,0.9 c-0.1,0.1-0.3,0.3-0.4,0.6C177.9,149.2,177.5,148.6,176.9,148.2z" style="fill:#f7d06f"/><path d="M474.5,84.9c-1.6,0.3-7.5-0.9-4.7-3.7c3-3,0.1-7.1-3-7.2c-2.4-1.9-6.9-0.9-7.1,3.2c-0.1,4.6-2.4,8.1-5.8,10.5 c-0.9,0.3-1.6,0.7-2.4,1.3c-4.6,3.2-0.7,9.6,4.3,7.4c0.7-0.3,1.3-0.6,2.1-1c3.4-1.2,6.6,0.9,7.2,5c0.9,5.5,9,3.1,8.3-2.2 c-0.3-2.4,1.5-4.3,3.5-4.9C482.1,91.5,479.8,84.2,474.5,84.9z" style="fill:#f7d06f"/><path d="M557.2,349.7c-5.5,0-5.5,8.6,0,8.6C562.7,358.1,562.7,349.7,557.2,349.7z" style="fill:#fff"/><path d="M667.1,314.8c-5.5,0-5.5,8.6,0,8.6C672.6,323.2,672.6,314.8,667.1,314.8z" style="fill:#fff"/><path d="M644.9,179.6H644c-2.2,0-4.4,1.9-4.3,4.3c0.1,2.4,1.9,4.3,4.3,4.3h0.9c2.2,0,4.4-1.9,4.3-4.3 C649,181.5,647.2,179.6,644.9,179.6z" style="fill:#fff"/><path d="M475.2,236c-5.5,0-5.5,8.6,0,8.6C480.6,244.4,480.6,236,475.2,236z" style="fill:#fff"/><path d="M411.5,172.1c-2.4,0.1-4.3,1.9-4.3,4.3v0.9c0,2.2,1.9,4.4,4.3,4.3c2.4-0.1,4.3-1.9,4.3-4.3v-0.9 C415.7,174.2,413.8,172.1,411.5,172.1z" style="fill:#fff"/><path d="M513.7,78.6c-0.3-0.3-0.6-0.6-0.9-0.9c-1.6-1.6-4.4-1.6-6,0c-1.6,1.8-1.6,4.3,0,6l0.9,0.9c1.6,1.6,4.4,1.6,6,0 C515.2,82.8,515.3,80.2,513.7,78.6z" style="fill:#fff"/><path d="M475,139.3c-5.5,0-5.5,8.6,0,8.6S480.5,139.3,475,139.3z" style="fill:#fff"/><path d="M379.6,220.5c-5.5,0-5.5,8.6,0,8.6C385,228.9,385,220.5,379.6,220.5z" style="fill:#fff"/><path d="M526.8,163.8c-0.3-0.3-0.6-0.6-0.9-0.9c-1.6-1.6-4.4-1.6-6,0c-1.6,1.8-1.6,4.3,0,6c0.3,0.3,0.6,0.6,0.9,0.9 c1.6,1.6,4.4,1.6,6,0C528.4,168.1,528.6,165.5,526.8,163.8z" style="fill:#fff"/><path d="M397.6,261.2c-5.5,0-5.5,8.6,0,8.6C403,269.6,403,261.2,397.6,261.2z" style="fill:#fff"/><path d="M131,211.8c-1.8-1.6-4.3-1.6-6,0c-0.3,0.3-0.6,0.6-0.9,0.9c-1.6,1.6-1.6,4.4,0,6c1.8,1.6,4.3,1.6,6,0l0.9-0.9 C132.6,216.2,132.8,213.4,131,211.8z" style="fill:#fff"/><path d="M173.6,275.5c-2.4,0.1-4.3,1.9-4.3,4.3v0.9c0,2.2,1.9,4.4,4.3,4.3c2.4-0.1,4.3-1.9,4.3-4.3v-0.9 C177.9,277.6,176,275.4,173.6,275.5z" style="fill:#fff"/><path d="M174.5,348c-5.5,0-5.5,8.6,0,8.6C180,356.4,180,348,174.5,348z" style="fill:#fff"/><path d="M127.6,290.4c-5.5,0-5.5,8.6,0,8.6C133.1,298.8,133.1,290.4,127.6,290.4z" style="fill:#fff"/><path d="M375.3,510.7c-6.3,0.3-12.8,0.4-19.2,0.7c-5.6,0.1-5.8,9,0,8.9c6.3-0.3,12.8-0.4,19.2-0.7 C380.9,519.2,380.9,510.4,375.3,510.7z" style="fill:#57455d"/><path d="M703.7,456c-0.4-1-1.3-1.8-2.8-2.1c-6.9-1.2-18.6-2.5-23.5,4.3c-4.7,6.6,1,14.3,8,15.8 c6.8,1.5,16.5-0.7,21.1-6.2C710.4,463.2,708.1,457.9,703.7,456z M693.7,465.1c-2.1,0.4-5.2,1-7.2,0.1c-3.7-1.6,0.9-2.8,2.7-3 c2.5-0.3,5-0.1,7.5,0.1c0.3,0.4,0.7,0.9,1.3,1.2c-0.1,0-0.1,0.1-0.3,0.1C696.3,464.1,695.2,464.7,693.7,465.1z" style="fill:#57455d"/><path d="M381.2,444.6c-4.6,0-9.3,0.6-13.7,1.8c-5.5,1.3-3.2,9.9,2.4,8.6c3.7-0.9,7.5-1.3,11.4-1.3 C387,453.4,387,444.6,381.2,444.6z" style="fill:#57455d"/><path d="M574.5,493.6h-8.9c-5.8,0-5.8,8.9,0,8.9h8.9C580.1,502.4,580.1,493.6,574.5,493.6z" style="fill:#57455d"/><path d="M650,426.3c-3.5-1.3-7.7-1.3-11.4,0c-2.2,0.7-3.7,3.1-3.1,5.5c0.6,2.2,3.1,3.8,5.5,3.1c2.4-0.7,4.3-0.7,6.6,0 c2.2,0.7,4.9-0.9,5.5-3.1C653.9,429.3,652.4,427,650,426.3z" style="fill:#57455d"/><path d="M207.6,435.2c-0.7-0.9-1.8-1.5-3.1-1.5c-8.1-0.4-21.4-1.2-25.8,7.2c-4.3,8,4,14.8,11.2,16.2 c7.4,1.5,18.9,0.1,23.9-6.2C218.6,444.4,213.8,437.8,207.6,435.2z M205.8,446.1c-0.6,1.2-3.7,1.6-4.7,2.1c-3.4,1-7.5,1.3-10.9,0.1 c-5.5-1.8-3.1-4.6,1.5-5.5c3.1-0.6,6.3-0.6,9.4-0.4c0.4,0.1,0.7,0.4,1.3,0.6c1.2,0,2.2,0.4,3,1.3 C207,444.6,207.1,445.3,205.8,446.1z" style="fill:#57455d"/><path d="M262.3,508.6c-0.7-2.5-3.1-3.5-5.5-3.1c-4.7,0.7-9.3,1.6-14,2.4c-2.4,0.4-3.7,3.2-3.1,5.5 c0.7,2.5,3.1,3.5,5.5,3.1c4.7-0.7,9.3-1.6,14-2.4C261.6,513.6,262.7,510.8,262.3,508.6z" style="fill:#57455d"/><path d="M388.1,394.4c-4.1-0.3-8.4-0.4-12.5-0.7c-5.8-0.3-5.6,8.6,0,8.9c4.1,0.3,8.4,0.4,12.5,0.7 C393.7,403.6,393.7,394.7,388.1,394.4z" style="fill:#57455d"/><path d="M156.5,414.2c-0.7-2.5-3.1-3.4-5.5-3.1c-1.5,0.1-3.2,0-5-0.6c-2.2-0.7-4.9,0.9-5.5,3.1 c-0.6,2.4,0.7,4.7,3.1,5.5c3.2,1,6.5,1,9.7,0.6C155.8,419.4,157.1,416.4,156.5,414.2z" style="fill:#57455d"/><path d="M123.3,489.1c-5.3-0.4-10.5-0.9-15.8-1.3c-5.6-0.4-5.6,8.4,0,8.9c5.3,0.4,10.5,0.9,15.8,1.3 C128.9,498.4,128.9,489.6,123.3,489.1z" style="fill:#57455d"/><path d="M641.5,503c-4.4-0.1-8.7,0.3-13,1.3c-5.6,1.3-3.2,9.7,2.4,8.6c3.5-0.7,6.9-1,10.6-1 C647.2,512,647.2,503.2,641.5,503z" style="fill:#57455d"/><path d="M737.5,483.8c-3.5-0.1-7.1,0.9-10,2.7c-2.1,1.3-2.8,4-1.6,6c1.2,2.1,4,2.8,6,1.6c1.8-1.2,3.4-1.5,5.6-1.5 c2.4,0.1,4.4-2.1,4.4-4.4C741.9,485.9,739.9,484,737.5,483.8z" style="fill:#57455d"/><path d="M470.8,518.7c-4-0.4-7.8-0.9-11.8-1.3c-2.4-0.3-4.4,2.2-4.4,4.4c0,2.7,2.1,4.1,4.4,4.4c4,0.4,7.8,0.9,11.8,1.3 c2.4,0.3,4.4-2.2,4.4-4.4C475.2,520.4,473.1,518.8,470.8,518.7z" style="fill:#57455d"/><path d="M180.4,513.5h-11.8c-5.8,0-5.8,8.9,0,8.9h11.8C186,522.3,186,513.5,180.4,513.5z" style="fill:#57455d"/><path d="M98.2,448.7c-4.3,1-8.6,1.9-12.8,3c-5.6,1.2-3.2,9.7,2.4,8.6c4.3-1,8.6-1.9,12.8-3 C106.1,456,103.7,447.4,98.2,448.7z" style="fill:#57455d"/><path d="M643.2,230.1c-2.4,0.1-4.4,1.9-4.4,4.4v1.2c0,2.4,2.1,4.6,4.4,4.4c2.4-0.1,4.4-1.9,4.4-4.4v-1.2 C647.7,232.3,645.6,230.1,643.2,230.1z" style="fill:#fff"/><path d="M741.2,335.4h-4c-0.4-1.6-0.9-3.4-1.6-5c-0.9-2.2-3-3.7-5.5-3.1c-2.1,0.6-4,3.2-3.1,5.5 c0.3,0.9,0.6,1.8,0.9,2.7h-4.7c-5.8,0-5.8,8.9,0,8.9h6c0,0.9,0,1.9-0.1,2.8c-0.3,2.4,0.6,4.7,3.1,5.5c2.1,0.6,5.2-0.7,5.5-3.1 c0.3-1.8,0.4-3.5,0.4-5.2h3.1C746.9,344.3,746.9,335.4,741.2,335.4z" style="fill:#f7d06f"/><path d="M638.4,102.2c-1.9,0.1-3.8,0.1-5.8,0.1c-0.3-1.8-0.4-3.4-0.7-5.2c-0.3-2.4-3.4-3.7-5.5-3.1 c-2.5,0.7-3.4,3.1-3.1,5.5l0.3,1.9c-0.7-0.1-1.3-0.1-2.1-0.3c-5.6-1.2-8,7.4-2.4,8.6c1.9,0.4,3.8,0.7,5.6,1l1,6.8 c0.3,2.4,3.4,3.7,5.5,3.1c2.5-0.7,3.4-3.1,3.1-5.5c-0.1-1.3-0.3-2.5-0.6-3.8c1.5,0,3,0,4.4-0.1 C644.1,110.6,644.1,101.7,638.4,102.2z" style="fill:#f7d06f"/><path d="M85.8,252.9c-3.4,0.4-6.8,1-10.2,1.8c-0.1-1.5-0.3-3.1-0.4-4.6c-0.6-5.6-9.4-5.6-8.9,0 c0.3,2.4,0.4,4.7,0.7,7.1c-0.6,0.1-1,0.3-1.6,0.6c-5.3,1.9-3,10.5,2.4,8.6c0,0,0,0,0.1,0c0.1,2.2,0.4,4.4,0.6,6.6 c0.6,5.6,9.4,5.6,8.9,0c-0.3-3.1-0.6-6.2-0.9-9.3c3.1-0.7,6.2-1.3,9.3-1.8C91.5,261.2,91.5,252.4,85.8,252.9z" style="fill:#f7d06f"/><path d="M112.1,352.1c-1.8,0-3.5,0-5.2,0c-0.4-1.8-0.7-3.4-1.2-5.2c-1.3-5.6-9.9-3.2-8.6,2.4c0.3,1.2,0.6,2.4,0.9,3.7 c-1.3,0.1-2.5,0.4-3.8,0.7c-5.6,1.2-3.2,9.7,2.4,8.6c1.2-0.3,2.4-0.4,3.4-0.6c0.3,1.5,0.7,3,1,4.4c1.3,5.6,9.9,3.2,8.6-2.4 c-0.1-0.9-0.4-1.8-0.6-2.8c1,0,2.1,0,3.1,0C117.9,361.2,117.9,352.4,112.1,352.1z" style="fill:#f7d06f"/><path d="M415.7,89.3c-5.8,0-5.8,8.9,0,8.9C421.5,98.2,421.5,89.3,415.7,89.3z" style="fill:#fff"/><path d="M221,79.4c-5.8,0-5.8,8.9,0,8.9C226.7,88.3,226.7,79.4,221,79.4z" style="fill:#fff"/><path d="M103.7,161.9c-5.8,0-5.8,8.9,0,8.9C109.5,170.8,109.5,161.9,103.7,161.9z" style="fill:#fff"/><path d="M42.8,324.6c-5.8,0-5.8,8.9,0,8.9C48.5,333.5,48.5,324.6,42.8,324.6z" style="fill:#fff"/><path d="M710.2,182.3c-5.8,0-5.8,8.9,0,8.9C715.8,191.1,715.8,182.3,710.2,182.3z" style="fill:#fff"/><path d="M729.2,258.8c-5.8,0-5.8,8.9,0,8.9C735,267.7,735,258.8,729.2,258.8z" style="fill:#fff"/><path d="M687.5,358.1c-2.4,0.1-4.4,1.9-4.4,4.4v1.2c0,2.4,2.1,4.6,4.4,4.4c2.4-0.1,4.4-1.9,4.4-4.4v-1.2 C691.9,360.2,689.9,358,687.5,358.1z" style="fill:#fff"/><path d="M766.4,404.8c-5.8,0-5.8,8.9,0,8.9C772,413.6,772,404.8,766.4,404.8z" style="fill:#fff"/><path d="M566.7,98.5c-5.8,0-5.8,8.9,0,8.9C572.3,107.3,572.3,98.5,566.7,98.5z" style="fill:#fff"/><path d="M572.1,281.3c-5.8,0-5.8,8.9,0,8.9C577.7,290.1,577.7,281.3,572.1,281.3z" style="fill:#fff"/><g><path d="M230,215.5c-0.6-8.7-3-17.7-11.8-21.4c-6.8-2.8-14.3-0.7-17.4,6.2c-4.7,10.2-4.1,24.6-4.3,35.6 c-0.1,12.4,1.2,24.6,3.1,36.7c1.5,9.1,2.5,22,9.7,28.9c5.5,5.2,14.5,5.6,19.6-0.1c0.1-0.1,0.3-0.3,0.4-0.6c2.2,0,4.4-1.3,4.1-4.3 C231.5,269.6,231.6,242.5,230,215.5z" style="fill:#ef86b0"/><path d="M231.6,165.3c-20.5-8.7-45.3,12.8-53.1,30.4c-8.4,19-7.8,54.7,19.5,56.2c0.3,0,0.7,0,1,0 c4.1,0,5.5-6.9,0.7-8.9c-16.7-6.5-16.2-30.1-10.2-43.8c6.9-15.8,22.7-25.2,39.7-25.5C233.4,173.6,235.9,167.1,231.6,165.3z" style="fill:#57455d"/><path d="M314.4,234.7c24.8-25.8,42.3-58,50.5-92.8c4-17,6.2-35.3,4.9-52.8c-0.4-6.3-1.9-13.3-7.2-17.4 c-5-3.8-11.1-2.8-14.9,2.1c-4.1,5.3-4.7,13.3-6.2,19.6c-2.1,9-4.1,17.9-6.6,26.7c-4.7,17-10.8,33.8-20.2,48.8 c-4.6,7.2-9.9,13.9-16.1,19.6c-9.4,8.9-18.9,12-31.4,8c-8-2.5-21.1-6.8-23.6-15.9c-2.7-9.7,0-21.8,3.1-31.1 c7.2-22.3,23.6-39.8,41.2-54.7c13.7-11.5,35.6-22.1,39.2-41.5c0.4-2.5-1.2-5.9-4.3-5.6c-31.1,2.8-59.6,19-78.8,43.5 c-20.9,26.7-29.8,60.9-28.6,94.4c0,1.3,0.6,2.2,1.3,3c-0.1,20.4,1.5,40.6,4.9,60.6c2.8,31.7,6.2,63.4,10.2,95.2 c3.2,25.7,6.9,51.3,10.9,77c1,6.6,2.1,13.3,3.2,19.9c1,6.5,3.2,13.6,3.1,20.1c-0.3,9.1-11.2,12.5-12,22.1 c-0.1,2.5,2.2,4.3,4.4,4.4c11.1,0.4,21.8-0.9,32.6-3.8c1.9-0.6,3.2-2.4,3.2-4.3c0.6-39.8,1.3-79.7,1.9-119.5 c4,21.1,8.1,42.3,12.1,63.4c1.6,8.6,3.2,17.1,4.9,25.7c1.5,7.7,2.1,16.5,4.7,23.9c4.4,12.4,25.1,10.2,35.4,9.6 c3.2-0.1,5.6-3.7,3.8-6.6c-4.7-7.8-13-11.1-14.6-20.8c-1.8-10.5-2.2-21.2-3.2-31.7c-2.1-21.7-4-43.5-5.6-65.2 c-3-41-4.4-82.2-3.2-123.2C313.5,235.4,313.9,235.1,314.4,234.7z" style="fill:#fff"/><path d="M293.7,258.3c-0.1-10.5,0.6-24.2-3.1-34.2c-3.2-8.7-15.9-7.7-23.5-8.1c-6.8-0.4-19.6-3-24.3,3.8 c-2.1,3-2.1,7.4-2.5,10.9c-0.7,6.2-1,12.5-0.7,18.9c0.3,9.4,0.4,23.5,7.5,30.8c7.4,7.8,20.7,5.5,29.8,3c1-0.3,1.8-0.7,2.2-1.5 c2.4-0.1,4.9-0.6,7.1-1C295.9,278.3,293.7,266.2,293.7,258.3z" style="fill:#f7d06f"/><path d="M294.2,53c-17,6.6-33.2,15-45.3,29.1c-2.2,2.5-1,5.6,1.2,6.9c4,4.6,8.1,9,12.1,13.6c2.5,2.8,4.9,6.3,8.9,6.8 c4,0.4,7.7-2.4,10.8-4.4c4.3-2.7,8.6-5.6,12.5-8.7c7.8-5.9,15-12.2,21.8-19.2c5.3-5.5,13.6-12.5,14.2-20.7 C331.9,36.1,302.9,49.6,294.2,53z" style="fill:#74a2d6"/><path d="M370.9,77.4c-2.5-4.9-6.9-11.4-12.8-12.1c-5.8-0.6-9.1,4.7-11.4,9.1c-3.5,6.9-5.5,14.6-7.8,22 c-3,9.3-5.9,18.7-8.9,28c-1.3,4.1,3.2,6.5,6.3,5c0.1,0,0.1,0.1,0.3,0.1c8.4,1.6,17,3,25.5,3.1c7.1,0,9.4-1.9,10.9-8.9 C376.2,108.7,378.4,91.7,370.9,77.4z" style="fill:#74a2d6"/><g><path d="M496.9,381.2c4.7,8.9,13.6,7.8,22.1,7.4c11.8-0.6,23.8-0.9,35.4-1.9c8-0.7,16.5-3.1,19.9-11.2 c2.5-5.6,1.8-11.7,0.4-17.6c1-1.2,1.6-2.8,0.9-4.6c-3.1-8.4-14-8.3-21.4-8.9c-11.4-0.9-22.9-0.6-34.2,1 c-8.6,1.2-17.3,1.6-21.2,10.3C495.3,363.3,492.7,373.3,496.9,381.2z" style="fill:#ef86b0"/><path d="M405,369.6c16.8,20.1,44.4,27,69.5,23.8c2.8-0.3,3.8-2.7,3.5-4.9c10.8-1.6,19-8.7,25.1-18.3 c7.7-12.2,13.9-28.3,14.8-42.8c3.7-59.3-95.6-63.1-119.7-20.9C387,326.1,390.7,352.5,405,369.6z" style="fill:#b4c7e7"/><path d="M424.4,480.6c2.7,2.5,6.3-0.1,7.1-3c2.5-11.2,3.8-22.7,3.8-34.2c0-4.7-2.1-10.5,3.1-11.8 c3.5-1,8.3-0.7,12.5-0.6c0.3,18.3,3.2,36.1,8.7,53.6c0.7,2.5,3.7,3,5.9,2.2c7.5-2.4,8.7-10.6,8.6-17.6c-0.3-11.2-1-22.6-1.6-33.8 c7.2-0.9,14.5-1.2,21.8-1c4,0.1,9.4-0.6,12.5,2.2c2.5,2.4,1.5,5.5,1.6,8.7c0.4,13,5.8,25.2,14.5,35c2.4,2.7,7.7,1.9,7.8-2.2 c0.3-8.9,0.6-17.6,0.9-26.4c0.1-3.5-0.7-9.1,0.4-12.5c1.5-4.4,8-3.5,11.8-4c15.9-1.8,31.9-3.5,47.7-5.2 c2.4,14.2,6.9,27.6,13.9,40.1c1.9,3.4,8.3,3.5,8.4-1.2c1.2-44.3-3.8-88.2-15.5-131c-1.3-4.6-8-5.2-8.7,0.1s-1.6,10.6-2.4,15.9 c-0.7,4.4-0.1,13.4-4.7,15.8c-3.2,1.6-10.3,1-13.9,1.2c-4.6,0.3-9.3,0.6-14,0.9c-20.1,0.9-40.1,0.3-60.2-1.3 c-1.6-0.1-3,0.6-3.7,1.5c-18,0.3-35.9,0.4-53.9,0.7c-6.5,0.1-16.1-1.6-21.8,1.6c-5.5,3.2-4.7,10.3-5,15.9 c-0.7,18.1-0.4,36.3,1,54.3C412,457.9,414.1,471,424.4,480.6z" style="fill:#fff"/><path d="M420.3,374.5c7.1,2.5,14.5,3.5,22,3.8c7.4,0.9,14.8,1.3,22.3,1.2c4.4-0.1,15.2,0.9,19.8-2.8 c2.1,0.1,4-1,4-3.7c0-9.9-0.4-19.8-1.9-29.5c-1-6.6-2.4-13-7.8-17.3c-2.5-1.9-5.5-0.6-6.8,1.9c-2.1,3.8-4.1,7.7-6.2,11.5 c-10.2-0.1-20.5,0-30.7,0.3c-1.2-2.4-2.2-4.9-3.4-7.1c-1.8-3.2-6.6-3.5-8.1,0.1c-5,11.8-5.6,24.5-5.8,37.2 C417.5,371.7,418.2,373.8,420.3,374.5z" style="fill:#56597a"/><path d="M589.4,438.1c1.9,10.9,6.5,24.9,13.6,33.6c5.3,6.5,13,3.7,14.5-3.8c2.4-12.1,0.1-26.7-2.1-38.7 c-0.4-2.5-2.5-3.7-4.4-3.5c-0.7-1.2-2.2-1.8-4-1.3C597.9,426.6,587.3,426.4,589.4,438.1z" style="fill:#74a2d6"/><path d="M506.9,444.3c1.8,8.4,3.1,17.1,5.6,25.4c1.6,5.2,4.7,12.5,10.9,13.1c6.9,0.7,7.8-6.8,8.7-12 c1.5-8.6,1.8-17.4,1.9-26.1c0-1-0.3-2.1-0.9-2.8c-0.6-1.2-1.6-2.1-3.2-2.4c-6.5-1-12.8-1.2-19.3-0.4 C508.4,439.4,506.5,441.9,506.9,444.3z" style="fill:#74a2d6"/><path d="M454.5,474.4c0.9,5.5,2.1,14.9,9.9,14c7.2-0.9,8.6-9.4,9.4-15.2c1.8-10.2,2.4-20.4,2.1-30.5 c-0.1-4.1-4.6-4.6-7.1-2.4c-5-0.1-10.2-0.4-14.9,0.9c-1.5,0.4-2.4,2.1-2.7,3.5c-0.9,4.1,0.3,9.1,0.7,13.4 C452.8,463.5,453.5,468.9,454.5,474.4z" style="fill:#74a2d6"/><path d="M424.4,489c7.5,2.2,9-5.3,9.7-10.8c1.5-10.3,2.7-20.7,3.4-31.1c0-0.3,0-0.7,0-1c0.3-2.2-0.9-4.7-3.7-5.2 c-6.3-1-12.4-1.2-18.7-0.1c-2.7,0.4-3.8,2.7-3.7,5C411.6,457.1,409.7,484.6,424.4,489z" style="fill:#74a2d6"/><path d="M465.5,356.8c1.5-1.9,4.3-2.4,6.2-0.9l0.9,0.6c1.5,1.2,2.2,3.2,1.5,5c3.2-2.2,6.2-4.9,8.6-8.1 c3.4-4.6,10.5,0.7,7.1,5.3c-3.1,4.1-6.8,7.7-11.1,10.5c-2.1,1.3-4.6,1.3-6.2-0.7c-0.9-1.2-1.2-3-0.6-4.4 c-1.5,0.7-3.1,0.6-4.6-0.4l-0.9-0.6C464.6,361.7,464,358.7,465.5,356.8z" style="fill:#57455d"/><path d="M433.7,355.8l0.7-0.1c2.4-0.3,4.7,1.3,5,3.7c0.3,2.4-1.3,4.7-3.7,5l-0.7,0.1c-2.4,0.3-4.7-1.3-5-3.7 C429.7,358.3,431.4,356.1,433.7,355.8z" style="fill:#57455d"/><path d="M439.9,370.2c1.9-3.5,4.1-6.5,7.1-9.3c1.3-1.2,4-1.3,5.5-0.1c3.1,3,5.6,6,7.5,9.9c2.5,5.2-5.6,8.7-8.1,3.5 c-0.6-1.2-1.2-2.4-2.1-3.4c-0.6,0.9-1.2,1.6-1.6,2.7c-1.2,2.1-3.4,3.4-5.8,2.5C440.4,375.1,438.9,372.3,439.9,370.2z" style="fill:#57455d"/><path d="M410.6,348.5c2.1-1.6,4.6-1,6.2,0.7c3.4,3.5,7.4,6.6,11.7,9.3c2.1,1.3,2.2,4.4,0.9,6.2 c-1.5,2.1-4.1,2.2-6.2,0.9c-4.9-3.1-9.3-6.8-13.3-10.9C408.2,353.1,408.8,350,410.6,348.5z" style="fill:#57455d"/><path d="M470.6,328.3c0-2.4,1.2-4.6,3.7-5c2.1-0.3,5,1.3,5,3.7c0,4.4,0.1,8.9,0.1,13.3c0,2.4-1.2,4.6-3.7,5 c-2.1,0.3-5-1.3-5-3.7C470.8,337,470.6,332.6,470.6,328.3z" style="fill:#57455d"/><path d="M422.1,334.1c1-5.6,9.7-4.6,8.9,1c-0.6,3.8-0.9,7.5-0.6,11.4c0.4,5.6-8.3,6.9-8.7,1.3 C421,343.4,421.2,338.7,422.1,334.1z" style="fill:#57455d"/><path d="M504.8,301.8c3.1-3.5,7.4-1.5,9.7,1.8c0.1,0.3,0.4,0.6,0.6,0.9c6,4.6,7.1,12.5,3.5,19 c-1,1.9-4.6,2.4-6.2,0.9c-3.2-3.1-6.6-6.5-8.4-10.8C502.6,310,502,304.7,504.8,301.8z" style="fill:#f7d06f"/><path d="M523.4,349.6c1.3-6.3,10.2-6.3,15.6-5.6c4.4,0.1,9.1,1.6,10.5,5.6c2.5,7.5-7.4,8.7-12.2,8.4 C532.3,357.8,521.8,356.8,523.4,349.6z" style="fill:#f7d06f"/><path d="M509.7,310.2c1.5-3.2,4.3-4.9,7.4-5.5c8.1-2.7,17,0.9,21.8,8.3c2.5,3.8,3.8,8.1,4.3,12.5 c0.3,1.8,0.3,3.5,0.3,5.3c0.6,5.2,0.1,10.3-1.2,14.8c-2.1,6.8-12.5,7.7-12.5-0.6c0-6,3.7-11.4,3.1-17.9 c-0.3-3.8-1.8-7.5-4.6-10.2c-4-1.9-9.3-1.3-13.7-0.9C511.3,316.7,508.2,313.4,509.7,310.2z" style="fill:#57455d"/><path d="M408.2,372.2c4.9-4.3,10.8-5.2,17-5c8.4,0.3,16.8,1.2,25.4,1.3c3.7,0,7.4,0,11.2,0c0.6-0.3,1.2-0.6,1.9-0.6 c8.3-0.9,16.5-1.6,24.8-2.5c5.9-0.6,15-3.2,20.7-1.2c3.5,1.3,5.2,4.9,4.3,8.6c-1.2,5-5.9,6.5-10.6,6.9 c-16.5,1.5-33.2,1.6-49.9,2.4c-13.9,0.7-30.7,4.1-43.8-2.1C406.3,378.2,405.7,374.4,408.2,372.2z" style="fill:#ef86b0"/><path d="M489.8,430.1c-0.6-6.9,4-10.5,10.5-11.5c10.6-1.9,22-2.2,32.8-2.7c12.2-0.4,38.9-4.9,39.1,13.9 c0,1.9-0.9,3-2.2,3.4c-0.6,0.6-1.5,1-2.2,1.2c-23.9,4-47.9,4.4-72,1.3c-1.5-0.1-2.8-1.2-3.4-2.5 C491,432.6,489.9,431.5,489.8,430.1z" style="fill:#f7d06f"/><path d="M410,448.4c7.4-2.4,14.8-3.4,22.4-3.1c5.8,0.1,4.6,9-1,8.9c-6-0.3-12.1,0.6-17.7,2.5 C408.2,458.3,404.7,450.2,410,448.4z" style="fill:#57455d"/><path d="M455.4,447.4c5,0.7,10.2,1,15.2,0.6c5.6-0.4,6.9,8.4,1.3,8.7c-5.9,0.4-11.8,0.3-17.6-0.6 C448.8,455.4,449.8,446.7,455.4,447.4z" style="fill:#57455d"/><path d="M510.7,447.5c6-1,12.2-1,18.4-0.1c5.6,0.9,4.6,9.6-1,8.9c-5.5-0.9-10.6-0.7-16.1,0.1 C506.3,457.3,505,448.4,510.7,447.5z" style="fill:#57455d"/><path d="M588.2,436.8c7.4-0.9,14.9-1.6,22.3-2.5c5.6-0.6,6.9,8.1,1.3,8.7c-7.4,0.9-14.9,1.6-22.3,2.5 C583.8,446.2,582.4,437.5,588.2,436.8z" style="fill:#57455d"/><path d="M537.7,432.8c0.4-2.2,0.7-4.4,1.2-6.6c0.4-2.2,2.5-4.3,5-3.8c2.2,0.4,4.3,2.5,3.8,5 c-0.4,2.2-0.7,4.4-1.2,6.6c-0.4,2.2-2.5,4.3-5,3.8C539.4,437.4,537.3,435.3,537.7,432.8z" style="fill:#57455d"/><path d="M519,431.2c0-2.5,0-5,0.1-7.5c0-2.4,2.8-4.1,5-3.8c2.7,0.3,3.8,2.5,3.8,5c0,2.5,0,5-0.1,7.5 c0,2.4-2.8,4.1-5,3.8C520.2,435.9,519,433.7,519,431.2z" style="fill:#57455d"/><path d="M426.8,420.8c8.7,0.6,17,2.8,24.8,6.8c5,2.5,1.8,10.8-3.4,8.3c-7.1-3.7-14.5-5.6-22.4-6.2 C420,429.3,421.2,420.5,426.8,420.8z" style="fill:#57455d"/></g><path d="M332.7,136.8c-3.2-22.7-23.8-37.9-47.5-36.7c-24.2,1-43.2,18-52.2,38.7c-5.6,12.8-8.3,27.9-2.5,41.2 c3.2,7.2,8.9,13.3,15.9,16.8c5,5,10.8,9,18,10.5c13.1,2.7,26-3.5,36.3-10.8C320.7,182.6,336.2,161.2,332.7,136.8z" style="fill:#b4c7e7"/><path d="M296.1,157.3c-0.7-9-6.9-17.3-16.4-17.9c-11.2-0.7-19.5,7.7-24.6,16.5c-5.8,9.7-10.6,22.1-4.9,32.9 c4.4,8.4,14,12.5,22.9,8.1c7.5-3.7,12.5-11.4,15.6-19.5C293.6,170.9,296.7,163.1,296.1,157.3z" style="fill:#f7d3bc"/><path d="M296.1,205.1c-1.3-4.4-6.5-5.9-10.2-7.4c-7.2-2.8-14.6-5.6-22-8.3c-6.9-2.5-13.9-4.9-20.8-7.1 c-4.6-1.5-10-4-13.7,0.4c-1.9,2.4-1.6,5.2,0.9,6.9c0.1,0.1,0.4,0.3,0.6,0.4c0,1.3,0.6,2.8,2.2,3.5c12.8,6.2,26.1,12.8,39.7,17 C277.9,212.4,299.9,218,296.1,205.1z" style="fill:#ef86b0"/><path d="M337.7,465.1c-5.3-3.7-5.5-8.7-6.3-14.6l-2.8-18.4c-0.9-5.6-1.6-11.4-2.7-17c-0.6-3.5-1-7.1-4.7-8.6 c-4.1-1.6-10.3-0.1-14.6,0.3c-6,0.6-12.1,1.6-18,2.8c-4,0.7-3.8,5.3-1.6,7.5c1.9,7.7,4,15.3,5.9,23.2c0.9,4,1.8,7.8,2.7,11.8 c1.5,6.2,2.8,12.4,4.3,18.6c0.9,4,1.3,8,4.9,10.6c3,2.1,6.5,2.2,9.9,2.5c6.2,0.6,12.5,1,18.9,1.5c5.9,0.4,15.6,1.3,16.8-6.8 C351.6,470.9,342.6,468.5,337.7,465.1z" style="fill:#74a2d6"/><path d="M278.4,444.6c0.1-12.2,0.3-24.5,0.4-36.7c0-2.5-2.1-4.4-4.4-4.4c-9.7-0.3-19.5-0.4-29.4-0.7 c-2.5-0.9-5.9,0.6-5.9,4c0,15.3,1.5,30.4,4,45.6c1.3,8.1,0.7,13.4-5.8,19c-4.9,4.1-8.9,9-12.1,14.6c-1.8,3,0.4,6.5,3.8,6.6 c10.8,0.6,21.5,0,32.2-1.6c8.3-1.2,16.1-2.1,16.8-11.7C279,467.8,278.2,456,278.4,444.6z" style="fill:#74a2d6"/><path d="M298.3,154.5c-1.6-11.1-10.3-19.8-22-18.6c-13.9,1.3-21.5,13.3-27.7,24.3c-0.9,1.6-0.7,3.1,0,4.3 c0.1,2.1,1.6,3.8,4.3,3.8c2.1,0,4-0.1,5.9-0.3c-4.3,1.3-3.8,8.6,1.5,8.6c5.6,0,5.8-8.7,0.1-8.9c4.4-0.7,8.6-2.1,12.5-4 c0.4,3.8,1,8.4,2.2,12.1c-0.1,0-0.3,0-0.3,0c-2.4,0.1-4.4,1.9-4.4,4.4v0.7c0,0.6,0.1,1.2,0.4,1.8c-0.1-0.1-0.3-0.1-0.4-0.3 c-3.2-1.2-6.3-2.4-9.6-3.5c-2.2-0.9-4.9,0.9-5.5,3.1c-0.7,2.5,0.9,4.6,3.1,5.5c3.2,1.2,6.3,2.4,9.6,3.5c2.2,0.9,4.9-0.9,5.5-3.1 c0.3-1,0.1-1.9-0.1-2.8c0.4,0.1,1,0.3,1.6,0.3c1.9-0.1,3.7-1.3,4.3-3.1c1.8,1.5,4,2.2,6.9,1.3C296.7,181,299.5,163.5,298.3,154.5z" style="fill:#57455d"/><path d="M281,94.8c-4.9-8.1-9.6-16.5-14-24.9c-2.7-5-10.3-0.6-7.7,4.4c4.4,8.4,9.1,16.8,14,24.9 C276.3,104.2,284,99.8,281,94.8z" style="fill:#57455d"/><path d="M366.3,116.6c-9.9-1.2-19.8-2.8-29.5-4.6c-5.6-1-8,7.5-2.4,8.6c10.6,2.1,21.2,3.7,31.9,5 C371.9,126.1,371.9,117.2,366.3,116.6z" style="fill:#57455d"/><path d="M276.5,232.3c-7.5,0.4-15,0.4-22.7,0.3c-5.8-0.1-5.8,8.7,0,8.9c7.5,0.3,15.2,0.1,22.7-0.3 C282.1,240.8,282.2,232,276.5,232.3z" style="fill:#57455d"/><path d="M278.1,251.2c-7.5,0.7-15,1.5-22.7,2.1c-5.6,0.6-5.6,9.4,0,8.9c7.5-0.7,15-1.5,22.7-2.1 C283.7,259.4,283.7,250.6,278.1,251.2z" style="fill:#57455d"/><path d="M272.8,417.3c-10.6-1.8-21.2-3-31.9-3.5c-5.8-0.3-5.6,8.6,0,8.9c9.9,0.6,19.8,1.6,29.5,3.2 C276,426.7,278.4,418.2,272.8,417.3z" style="fill:#57455d"/><path d="M319.7,412.1c-9.7,1.9-19.6,3.4-29.5,4.4c-5.6,0.6-5.6,9.4,0,8.9c10.6-1,21.2-2.7,31.9-4.7 C327.7,419.7,325.3,411.1,319.7,412.1z" style="fill:#57455d"/><path d="M304.8,234.5c0.6-1.9,0-4.3-1.9-5.3c-2.1-1-4.9-0.6-6,1.6c-1.3,2.5-1.8,5.3-1,8.1c0.7,2.5,4.1,4.4,6.5,2.7 c1.8-1.3,2.8-2.8,2.8-5C305.1,235.7,304.9,235.1,304.8,234.5z" style="fill:#74a2d6"/><path d="M306.1,258.7c-0.3-2.5-2.2-4.6-4.9-4.4c-1,0-1.9,0.3-2.8,0.9c-1.2,0.6-1.9,1.8-2.2,3c-0.1,0.7-0.3,1.6,0,2.4 v0.1c0,0.1,0,0.1,0,0.3c0.1,1.8,1,3.4,2.7,4c1.6,0.7,3.5,0.3,4.9-0.9C305.4,262.8,306.4,260.8,306.1,258.7z" style="fill:#74a2d6"/><path d="M393.3,46.1c-1.5,0-3.1,0-4.6,0.1c3-3,5.5-6.3,6.2-10.3c0.6-3-2.1-6.8-5.5-5.5c-11.4,4.6-22.9,9-34.2,13.6 c-3,1.2-3.5,4.4-2.5,6.6c0,0.7,0.1,1.6,0.6,2.4c2.8,4.7,4.1,10.8,7.2,15c1.5,2.1,3.4,2.8,5.9,2.4c4.1-0.6,9.4-4.6,13.1-6.5 c5.5-3,10.6-6.2,15.8-9.6C399.1,52,397.9,46,393.3,46.1z" style="fill:#ef86b0"/><path d="M390.7,122.5c-9.1-25.7-19.3-50.9-30.5-75.8c-2.4-5.2-10-0.7-7.7,4.4c10.9,24,20.8,48.7,29.7,73.6 C384,130.2,392.6,127.8,390.7,122.5z" style="fill:#57455d"/><path d="M287.1,373.6c-2.5-22.6-4.9-45-7.4-67.6c-0.6-5.6-9.4-5.6-8.9,0c2.5,22.6,4.9,45,7.4,67.6 C278.8,379.2,287.7,379.4,287.1,373.6z" style="fill:#57455d"/></g></g></svg>