<?xml version="1.0" encoding="utf-8"?>
<!-- Generator: Adobe Illustrator 23.0.2, SVG Export Plug-In . SVG Version: 6.00 Build 0)  -->
<svg version="1.1" id="Capa_1" xmlns="http://www.w3.org/2000/svg" xmlns:xlink="http://www.w3.org/1999/xlink" x="0px" y="0px" viewBox="0 0 800 475.2" style="enable-background:new 0 0 800 475.2;" xml:space="preserve">

<g>
	<path d="M776.6,164.6c-22.2-41.7-60.8-80.1-114.1-108.3c-56-29.7-125-47.4-196.8-53.6c-72.9-6.4-148.1-1.5-218.1,13
		c-70.8,14.6-142,38.9-191.4,75.2c-26.2,19.2-44.9,42-52,67.2c-7.7,27.4-3.6,55.3,4.2,82.6c15.1,51.6,45.4,102.2,93.5,145.1
		c11.8,10.5,24.5,20.5,38.1,29.9c2.1,1.5,4.6,1.9,6.9,1.5c0.8,0.1,1.6,0.4,2.4,0.4c95,6.5,190.1,14.4,285.5,18.1
		c88.4,3.4,182.5,2,265.4-20.4c36.8-9.9,53.9-29.5,68.2-52.3c13.5-21.3,22.5-43.5,27.4-66.3C805.2,252.6,799.1,206.8,776.6,164.6z" style="fill:#56597A;"/>
	<path d="M736.1,384.5c-6.4-12.7-23.7-20.9-39.3-26.1c-49.5-16.5-105.6-24.6-159.4-27.4c-56-2.9-112.2,1.1-166.7,11.4
		c-1.6,0.3-2.8,0.9-3.4,1.7c-30.7,1.9-61.3,5-91.6,9.5c-25.5,3.8-51,8.9-75.8,14.7c-22.8,5.4-46.7,10.9-67.9,19.3
		c-15.1,6.1-28.7,15.9-28.7,29.7c0,13.1,12.4,23.4,26.1,30.3c18.1,9.4,40.6,13.6,61.8,17.2c24.5,4.1,49.4,6.5,74.4,7.9
		c106.8,6.1,217,0.7,321.8-15.4c44.9-6.9,95.2-16.9,131.8-38.7C733.4,410.7,743,398,736.1,384.5z" style="fill:#B4C7E7;"/>
	<path d="M228.3,208.4c-2.8,0.1-4.8,0.9-6.4,2.4c-0.1-0.1-0.4-0.3-0.5-0.4c-1.5-1.3-1.5-3.7-1.3-5.6
		c0.3-3.4-3.3-4.6-5.8-3.3c-2.3,0.3-4.4,2.1-3.8,4.9c0.7,3.7-0.8,7-3.6,9.4c-3.3,3.8,1.7,9,5.6,5.6c2.6-3,5.2,1.7,5.7,4
		c1.2,4.1,8.3,3.6,7.8-1.1c-0.1-1.2-0.5-4-0.1-5.8c2.3-0.7,4.4-2.1,5.7-4.2C233.4,211.9,231.2,208.3,228.3,208.4z" style="fill:#F7D06F;"/>
	<path d="M622.9,278.6c-3.7,0-4-4.6-4-7.3c0-1.9-1.1-3-2.4-3.4c-1.9-2.5-6.4-2.9-7,0.9c-0.4,2.8-2,5.3-4.4,6.6
		c-1.7,0-3.4,0.5-5,1.5c-3.2,1.9-2.1,7.8,2,7.4c1.5-0.1,2.8-0.4,4.1-0.9c1.9,0.8,2.5,4.5,2.6,6.2c0.1,4.5,6.4,5.3,7.8,1.1
		c0.9-2.8,3.4-4.1,6.2-4C628.1,286.5,628.1,278.7,622.9,278.6z" style="fill:#F7D06F;"/>
	<path d="M579.6,104.1c-2.8,0.5-4.6-1.1-4.9-3.3c0.4-1.7,0.5-3.4,0.4-5.3c-0.3-5-8.2-5.2-7.9,0c0,0.4,0,0.7,0,0.9l0,0
		c-0.3,1.1-0.4,2.1-0.4,3.2c-0.9,3.7-3.4,6.8-7.3,8.1l0,0c-0.3,0.1-0.7,0.3-0.9,0.4c-4.1,1.9-1.2,8.9,3,7.3c0.4-0.1,0.7-0.3,1.1-0.4
		c2.6-1.2,4.6,0.5,6.1,2.9c0.3,2.9,1.5,5.8,3.7,8.3c2.6,2.9,7.8-0.1,6.6-3.8c-0.7-2.1-1.5-4.2-2.5-6.2c0.4-2.3,2.5-4.1,5.3-4.6
		C586.8,110.9,584.7,103.3,579.6,104.1z" style="fill:#F7D06F;"/>
	<path d="M454,34.5c-4.8,1.6-5-4.4-4.5-7.1c0.5-2.9-2-4.9-4.2-5c-2.6-2-7.5,0.1-6.2,4.1c1.9,5.6-0.3,11-5,14
		c-0.4,0.3-0.9,0.5-1.3,0.8c-4.4,2.8-0.5,9.1,4,6.9c3.3-2.1,6-0.1,7.9,2.8c0.5,2.4,1.9,4.6,3.7,6.8c3.3,3.6,7.9-0.9,6.2-4.8
		c-0.7-1.5-1.5-3-2.5-4.5c-0.4-2.6,1.1-5.2,4.1-6.2C460.9,40.5,458.9,32.8,454,34.5z" style="fill:#F7D06F;"/>
	<path d="M366.5,96.7c-1.1,0-2.1,0.1-3,0.4c-4.2,0-6.9-3.6-6.4-8.2c0.3-2.3-1.3-3.6-3-3.7c-2.5-3.2-8.5-1.1-7,3.3
		c1.9,5,0.8,10.1-2.5,13.8c-0.7,0.5-1.2,1.1-1.7,1.7c-3.3,4,1.7,8.9,5.6,5.6c0.3-0.3,0.5-0.5,0.8-0.8c2.8-1.9,5.4,2.6,6.6,5.2
		c0.1,0.3,0.1,0.4,0.3,0.7c2.5,4.6,8.9,0.5,6.9-4c-0.1-0.1-0.1-0.4-0.3-0.5c-0.9-2.4,0.1-4.5,2.4-5.2c0.9,0,1.7-0.1,2.6-0.4
		C371.9,103.5,371,96.6,366.5,96.7z" style="fill:#F7D06F;"/>
	<path d="M286,281.6c-4.8,1.2-8.9-0.8-10.7-4.8c-0.1-1.7-0.4-3.4-1.1-5.2c-0.1-0.5-0.3-1.1-0.5-1.5
		c-0.3-0.7-0.7-1.3-1.1-2c-2.5-4.4-9.4-0.4-6.9,4c0.3,0.4,0.4,0.8,0.7,1.2c0.1,1.7,0.4,3.4,0.9,5c-0.1,2.4-0.9,4.6-2.4,6.6
		c-2,1.1-3.8,2.6-5.3,4.8c-2.4,3.4,2.1,7.1,5.4,5.4c2-1.1,3.6-2.4,5-4c2.9-0.5,5.8,1.9,6.4,5.3c0.8,5,8.5,2.9,7.7-2.1
		c-0.4-2.6,1.5-4.8,3.8-5.4C293.2,287.9,291.1,280.3,286,281.6z" style="fill:#F7D06F;"/>
	<path d="M238,140.9c-5.2,0-5.2,7.9,0,7.9C243,148.9,243,140.9,238,140.9z" style="fill:#FFFFFF;"/>
	<path d="M270.7,188.4c-5.2,0-5.2,7.9,0,7.9C275.7,196.4,275.7,188.4,270.7,188.4z" style="fill:#FFFFFF;"/>
	<path d="M238,290.5c-5.2,0-5.2,7.9,0,7.9C243,298.4,243,290.5,238,290.5z" style="fill:#FFFFFF;"/>
	<path d="M294.9,245.8c-5.2,0-5.2,7.9,0,7.9C299.9,253.7,299.9,245.8,294.9,245.8z" style="fill:#FFFFFF;"/>
	<path d="M462.1,301.1c-5.2,0-5.2,7.9,0,7.9S467.3,301.1,462.1,301.1z" style="fill:#FFFFFF;"/>
	<path d="M608.6,214.8c-2.1,0.1-4,1.7-4,4v1.2c0,2.1,1.9,4.1,4,4c2.1-0.1,4-1.7,4-4v-1.2
		C612.6,216.6,610.7,214.7,608.6,214.8z" style="fill:#FFFFFF;"/>
	<path d="M562.4,216.9c-5.2,0-5.2,7.9,0,7.9C567.5,224.8,567.5,216.9,562.4,216.9z" style="fill:#FFFFFF;"/>
	<path d="M535,168.5c-5.2,0-5.2,7.9,0,7.9C540.1,176.4,540.1,168.5,535,168.5z" style="fill:#FFFFFF;"/>
	<path d="M502.7,84.9c-5.2,0-5.2,7.9,0,7.9S507.9,84.9,502.7,84.9z" style="fill:#FFFFFF;"/>
	<path d="M413,77c-5.2,0-5.2,7.9,0,7.9C418,84.9,418.1,77,413,77z" style="fill:#FFFFFF;"/>
	<path d="M374.5,35.7c-2.1,0.1-4,1.7-4,4v1.2c0,2.1,1.9,4.1,4,4c2.1-0.1,4-1.7,4-4v-1.2
		C378.4,37.5,376.6,35.6,374.5,35.7z" style="fill:#FFFFFF;"/>
	<path d="M314.2,81c-5.2,0-5.2,7.9,0,7.9C319.4,88.9,319.4,81,314.2,81z" style="fill:#FFFFFF;"/>
	<path d="M397.8,305.1c-5.2,0-5.2,7.9,0,7.9C402.9,313,402.9,305.1,397.8,305.1z" style="fill:#FFFFFF;"/>
	<path d="M598.8,362.1c-1.1-1.1-2.4-1.2-3.4-0.9h-0.1c-7.3-0.8-17.3,0.8-22.4,6.8c-4.6,5.3-0.8,12.2,5,14.4
		c6.8,2.5,16.1,0.1,22-3.6C606.9,374.3,603.6,366.6,598.8,362.1z M594.9,372.3c-0.8,0.8-3.3,1.3-4.2,1.6c-2.8,0.9-7.7,2.5-10.3,0.7
		c-1.9-1.3-1.3-1.7,0.5-2.9c1.3-0.9,2.8-1.5,4.2-1.9c3.2-0.9,6.4-1.2,9.5-0.8C595.5,369.9,596,371,594.9,372.3z" style="fill:#57455D;"/>
	<path d="M544.6,356.7c-0.7-2.3-2.8-3-4.9-2.8c-3.8,0.5-7.7,1.1-11.5,1.6c-2.1,0.3-3.3,3-2.8,4.9c0.7,2.3,2.8,3,4.9,2.8
		c3.8-0.5,7.7-1.1,11.5-1.6C543.9,361.3,545.1,358.7,544.6,356.7z" style="fill:#57455D;"/>
	<path d="M447.4,444.8l-13,3c-5,1.2-2.9,8.9,2.1,7.7c4.4-1.1,8.7-2,13-3C454.4,451.3,452.3,443.7,447.4,444.8z" style="fill:#57455D;"/>
	<path d="M325.2,421.2c-0.7-2.3-2.8-3.2-4.9-2.8c-2.5,0.4-5,0.8-7.5,1.2c-2.1,0.4-3.3,3-2.8,4.9
		c0.7,2.3,2.8,3.2,4.9,2.8c2.5-0.4,5-0.8,7.5-1.2C324.6,425.7,325.8,423,325.2,421.2z" style="fill:#57455D;"/>
	<path d="M290,377.5c-4-4.2-10.3-4.9-16.1-4c-0.7-0.1-1.5-0.1-2.3,0.1c-0.9,0.4-2,0.8-3,1.2c-0.7,0.3-1.3,0.5-1.9,0.8
		c-0.1,0.1-0.4,0.1-0.5,0.3c-5.3,2.5-11,6.4-8.2,12.2c3.6,7.5,16.5,5.6,22.8,3.6C286.4,389.9,296.5,384.5,290,377.5z M281.9,382.8
		c-1.7,0.9-4,1.6-6,2c-1.7,0.4-3.4,0.5-5.3,0.5c-1.2,0-2.6-0.4-3.8-0.4c0.4-0.3,0.8-0.5,1.2-0.8c1.6-0.9,3.2-1.7,4.9-2.4
		c2.9-0.9,5.8-0.9,8.9,0C283.4,382.2,283.9,381.6,281.9,382.8z" style="fill:#57455D;"/>
	<path d="M333.6,364.1h-6.1c-2.1,0-4.1,1.9-4,4c0.1,2.1,1.7,4,4,4h6.1c2.1,0,4.1-1.9,4-4
		C337.4,366,335.8,364.1,333.6,364.1z" style="fill:#57455D;"/>
	<path d="M541.6,414.1c-5.7,0.5-11.4,1.1-17.1,1.6c-5,0.5-5,8.5,0,7.9c5.7-0.5,11.4-1.1,17.1-1.6
		C546.7,421.5,546.7,413.6,541.6,414.1z" style="fill:#57455D;"/>
	<path d="M394.2,438.9c-4.1-0.4-7.9-0.1-12,0.7c-2.1,0.4-3.3,2.9-2.8,4.9c0.7,2.3,2.8,3.2,4.9,2.8
		c3.3-0.5,6.6-0.7,9.9-0.3c2.1,0.1,4-2,4-4C398.2,440.6,396.3,439.2,394.2,438.9z" style="fill:#57455D;"/>
	<path d="M260.6,409c-2.8,0.3-5.4,0.5-8.2,0.7c-2.1,0.1-4,1.7-4,4c0,2,1.9,4.1,4,4c2.8-0.3,5.4-0.5,8.2-0.7
		c2.1-0.1,4-1.7,4-4C264.6,411,262.7,408.8,260.6,409z" style="fill:#57455D;"/>
	<g>
		<path d="M162.4,230c-1.5-18.5-16-33.1-33.6-34.9c-15.4-7.3-35.1-3.4-46.6,9.3c-13.4,14.8-14.4,38-4.6,54.9
			C100.9,299,165.7,274,162.4,230z" style="fill:#74A2D6;"/>
		<path d="M110.1,245.5c-9.7,5.2-20.3,6.8-30.8,4.5c-5-1.1-7.1,6.6-2.1,7.7c12.8,2.6,25.4,0.9,37.1-5.3
			C118.6,249.9,114.6,243.1,110.1,245.5z" style="fill:#57455D;"/>
		<path d="M146.4,212.4c-12,4.9-24.4,8.1-37.3,9.4c-5,0.5-5,8.5,0,7.9c13.6-1.5,26.7-4.6,39.4-9.7
			C153.1,218.2,151,210.6,146.4,212.4z" style="fill:#57455D;"/>
		<path d="M135.1,255.7h-4.6c-2.1,0-4.1,1.9-4,4s1.7,4,4,4h4.6c2.1,0,4.1-1.9,4-4C139.1,257.4,137.4,255.7,135.1,255.7z
			" style="fill:#57455D;"/>
	</g>
	<g>
		<path d="M748.7,222.5c1.1-5.7,0.5-11.5-2.3-16.9c-3.6-7-10.3-11.9-17.7-13.4c-0.1-0.1-0.4-0.1-0.5-0.3
			c-13.8-4.8-29.8-0.5-38.5,11.4c-8.5,11.6-8.1,28.9,0.9,40.1s25.8,15.5,38.9,9.5C741.3,247.9,749.2,235.2,748.7,222.5z" style="fill:#EF86B0;"/>
		<path d="M753.3,232.8c-4.1-3-8.5,3.6-4.5,6.6c1.5,1.5,1.3,2.6-0.3,3.4c-1.1,1.6-2.4,1.7-4.1,0.4
			c-2.4-0.7-4.8-1.6-7.1-2.4c-4-1.3-7.9-2.8-11.8-4.4c-9-3.4-17.9-7.3-26.6-11.5c-8.7-4.2-17.5-8.6-25.7-13.6
			c-1.3-0.8-2.9-1.6-4-2.8c-2-2-2.9-2.6-0.3-4.2c3.8-2.3,11.1-0.1,14.8,1.3c4.8,1.9,7.3-5.7,2.5-7.5c-7.5-2.9-30.7-4.9-26.9,9.5
			c1.6,6,7.5,9.3,12.6,12.2c7.5,4.4,15.4,8.3,23.3,12.2c8.3,4,16.8,7.7,25.3,11.1c7.8,3,16,6.9,24.2,8.5
			C756.1,253.7,762.6,239.8,753.3,232.8z" style="fill:#F7D06F;"/>
		<path d="M734.8,207.8l-6.4-4.4c-4.2-2.9-8.7,3.7-4.5,6.6l6.4,4.4C734.5,217.2,739,210.7,734.8,207.8z" style="fill:#57455D;"/>
		<path d="M716.4,215.7c-3.8-2.4-8.1-3.7-12.7-4c-5.2-0.3-5.7,7.7-0.5,7.9c3.2,0.1,6.1,0.9,8.7,2.6
			C716.4,225,720.7,218.4,716.4,215.7z" style="fill:#57455D;"/>
		<path d="M715.7,248.4c0.5-1.9-0.3-4.5-2.5-5c-1.6-0.4-3.3-0.8-4.9-1.1c-2-0.4-4.4,0.3-5,2.5c-0.5,1.9,0.3,4.5,2.5,5
			c1.6,0.4,3.3,0.8,4.9,1.1C712.8,251.3,715.2,250.5,715.7,248.4z" style="fill:#57455D;"/>
	</g>
	<path d="M756.2,308.6c-2.6,0.4-5.2,0.8-7.8,1.3c-0.4-2-0.7-3.8-1.1-5.8c-0.9-5-8.5-2.9-7.7,2.1c0.3,1.7,0.5,3.3,0.9,5
		c-1.9,0.3-3.6,0.5-5.4,0.9c-5,0.8-2.9,8.5,2.1,7.7c1.6-0.3,3-0.5,4.6-0.8l1.2,7c0.9,5,8.5,2.9,7.7-2.1c-0.4-2.1-0.7-4.1-1.1-6.2
		c2.9-0.4,5.7-0.9,8.6-1.3C763.4,315.4,761.2,307.8,756.2,308.6z" style="fill:#F7D06F;"/>
	<path d="M140.4,121.9h-8.3c-1.1-3.7-2-7.4-3-11c-1.3-4.9-9-2.8-7.7,2.1c0.8,2.9,1.6,6,2.5,8.9h-3.2
		c-5.2,0-5.2,7.9,0,7.9h5.4c0.5,1.7,0.9,3.4,1.5,5.2c1.3,4.9,9,2.8,7.7-2.1c-0.3-1.1-0.5-2-0.8-3h6.2
		C145.5,129.8,145.5,121.9,140.4,121.9z" style="fill:#F7D06F;"/>
	<path d="M153.3,297.9c-2.1,0.8-4.4,1.5-6.5,2.3c-0.5-1.3-1.2-2.6-1.7-4c-0.9-2-3.7-2.4-5.4-1.5c-2,1.2-2.3,3.4-1.5,5.4
		c0.4,0.8,0.8,1.7,1.2,2.5c-0.8,0.3-1.6,0.5-2.4,0.8c-4.8,1.6-2.8,9.3,2.1,7.7c1.2-0.4,2.3-0.8,3.4-1.2c0.5,1.3,1.2,2.6,1.7,4
		c0.9,2,3.7,2.4,5.4,1.5c2-1.2,2.3-3.4,1.5-5.4c-0.4-0.8-0.8-1.7-1.2-2.5c1.9-0.7,3.6-1.2,5.4-1.9
		C160.3,303.9,158.2,296.2,153.3,297.9z" style="fill:#F7D06F;"/>
	<path d="M658.5,381.8c-4.6,1.2-9.4,1.7-14.2,2c-5.2,0.1-5.2,8.1,0,7.9c5.4-0.1,10.9-0.9,16.3-2.3
		C665.5,388.3,663.4,380.6,658.5,381.8z" style="fill:#57455D;"/>
	<path d="M613.1,422.7c-6.6,1.6-13.2,2.5-20,2.8c-5.2,0.1-5.2,8.1,0,7.9c7.4-0.3,14.8-1.3,22.1-3
		C620.3,429.2,618.2,421.5,613.1,422.7z" style="fill:#57455D;"/>
	<path d="M296.6,450.7c-3.4,1.6-7,2.1-10.7,1.9c-5.2-0.4-5,7.5,0,7.9c5.2,0.4,10.1-0.7,14.8-2.9
		C305.4,455.3,301.3,448.6,296.6,450.7z" style="fill:#57455D;"/>
	<path d="M197.5,430.4h-12.8c-5.2,0-5.2,7.9,0,7.9h12.8C202.5,438.4,202.5,430.4,197.5,430.4z" style="fill:#57455D;"/>
	<path d="M196.3,394.4c-4.6,1.2-9.3,1.5-14,1.1c-5-0.4-5,7.5,0,7.9c5.4,0.4,10.9,0,16.1-1.3
		C203.4,400.8,201.3,393.1,196.3,394.4z" style="fill:#57455D;"/>
	<path d="M689.8,126.6h-5.2c-0.4-2.1-0.9-4.2-1.5-6.4c-1.5-4.9-9.1-2.8-7.7,2.1c0.4,1.5,0.8,2.9,1.1,4.2h-3
		c-5.2,0-5.2,7.9,0,7.9h4.1c0.1,2.1,0.1,4.4,0,6.5c-0.3,5.2,7.7,5,7.9,0c0.1-2.1,0.1-4.4,0-6.5h4.2
		C694.9,134.6,694.9,126.6,689.8,126.6z" style="fill:#F7D06F;"/>
	<path d="M239.3,67.2h-9c-0.4-2.9-0.8-5.8-1.2-8.7c-0.7-5-8.3-2.9-7.7,2.1c0.3,2.3,0.7,4.4,0.9,6.6h-4
		c-5.2,0-5.2,7.9,0,7.9h5c0.3,1.7,0.5,3.4,0.8,5.2c0.7,5,8.3,2.9,7.7-2.1c-0.1-1.1-0.3-2-0.4-3h7.9
		C244.5,75.1,244.5,67.2,239.3,67.2z" style="fill:#F7D06F;"/>
	<path d="M186.9,109.2c-5.2,0-5.2,7.9,0,7.9C192.1,117.1,192.1,109.2,186.9,109.2z" style="fill:#FFFFFF;"/>
	<path d="M85.6,167.3c-5.2,0-5.2,7.9,0,7.9S90.8,167.3,85.6,167.3z" style="fill:#FFFFFF;"/>
	<path d="M202.1,318.6c-5.2,0-5.2,7.9,0,7.9C207.1,326.5,207.1,318.6,202.1,318.6z" style="fill:#FFFFFF;"/>
	<path d="M128.8,358.1c-5.2,0-5.2,7.9,0,7.9C133.8,366.1,133.8,358.1,128.8,358.1z" style="fill:#FFFFFF;"/>
	<path d="M95,312.7c-5.2,0-5.2,7.9,0,7.9C100.1,320.7,100.1,312.7,95,312.7z" style="fill:#FFFFFF;"/>
	<path d="M302.2,31.2c-2.1,0.1-4,1.7-4,4v1.2c0,2.1,1.9,4.1,4,4s4-1.7,4-4v-1.2C306.2,33,304.3,31.1,302.2,31.2z" style="fill:#FFFFFF;"/>
	<path d="M532,32.2c-1.6-1.5-4.1-1.6-5.6,0c-0.4,0.4-0.8,0.8-1.2,1.2c-1.5,1.5-1.6,4.1,0,5.6c1.6,1.5,4.1,1.6,5.6,0
		l1.2-1.2C533.4,36.5,533.6,33.7,532,32.2z" style="fill:#FFFFFF;"/>
	<path d="M619.9,128.9h-1.2c-2.1,0-4.1,1.9-4,4c0.1,2.1,1.7,4,4,4h1.2c2.1,0,4.1-1.9,4-4
		C623.8,130.7,622.1,128.9,619.9,128.9z" style="fill:#FFFFFF;"/>
	<path d="M749.1,168.5h-1.2c-2.1,0-4.1,1.9-4,4s1.7,4,4,4h1.2c2.1,0,4.1-1.9,4-4C753,170.3,751.3,168.5,749.1,168.5z" style="fill:#FFFFFF;"/>
	<path d="M683.9,326.8c-5.2,0-5.2,7.9,0,7.9C689.1,334.7,689.1,326.8,683.9,326.8z" style="fill:#FFFFFF;"/>
	<path d="M488.4,135.4c-8.1-2.9-18-2.4-26.3-2.3l0,0c-4.9-0.5-9.8-0.8-14.4-0.9c-31.8-0.9-69.5-4.6-98.9,9.3
		c-11.8,5.6-20.3,17.2-25.5,29.5c-4.2,9.8-1.3,20.3,9,24.5c6.9,2.8,14.7,3.4,22,4.4c7.8,1.1,15.8,1.9,23.6,2.5
		c17.3,1.2,34.8,1.1,52.2-0.4c18.7-1.6,37.2-4.5,55.3-9.3c14.2-3.7,21.2-13,20.9-27.8C505.9,153,500.5,139.6,488.4,135.4z" style="fill:#57455D;"/>
	<path d="M608.6,59c-5.2,0-5.2,7.9,0,7.9C613.7,66.9,613.7,59,608.6,59z" style="fill:#FFFFFF;"/>
	<path d="M567.2,279h-0.9c-2.1,0-4.1,1.9-4,4s1.7,4,4,4h0.9c2.1,0,4.1-1.9,4-4S569.4,279,567.2,279z" style="fill:#FFFFFF;"/>
	<path d="M529.2,301.4c-7.3-9.8-14-20.1-20-30.8c-11.8-21.2-20.6-43.9-26.6-67.4c-6.8-26.7-9.4-31.9-7.9-59.4
		c1.7-1.6,1.7-5-1.3-5.8c-32-8.3-65.1-2.1-97.7-4.8c-2-0.7-4.6,0.3-4.8,3c-1.5,39.4-3.3,56.7-12.6,95.2
		c-4.4,17.7-10.2,35.2-18.3,51.6c-7.4,15.1-20.6,29.4-22.1,46.6c-0.1,1.7,1.7,3.4,3.3,3.3c15-0.7,25-12.8,33.5-23.8
		c10.2-13.1,19.2-27.1,26.6-41.8s12.4-29.9,18-45.3c1.2-3.4,2.8-7,5.4-9.5c4-3.6,10.5-3.8,15.5-4.1c9-0.5,18,0.3,26.9,2.1
		c-0.1,0.7-0.1,1.5,0.3,2.1c10.9,22.4,21.8,44.7,35.9,65.4c6.6,9.7,13.8,18.9,21.8,27.4c5.3,5.6,16.3,17.5,25.3,14.7
		C540.1,317.1,532.5,305.7,529.2,301.4z" style="fill:#FFFFFF;"/>
	<path d="M439.7,197.2c-12.8-2.5-28.7-0.4-40,7.1c-1.2-0.3-2.5,0.1-3.4,1.5c-0.7,0.9-1.2,1.9-1.9,2.9
		c-4,4-6.9,8.9-8.2,14.8c-0.1,0.5-0.1,0.9,0,1.5c-4.9,12.7-6.1,26.5,2.1,38.4c10.1,14.7,30.4,17.7,46.6,13.5
		c18-4.8,32.7-18.3,33.8-37.6C469.6,219.9,459.6,201,439.7,197.2z" style="fill:#B4C7E7;"/>
	<path d="M446.1,134.3c-6-3.6-14.2-2.8-20.8-2.6c-10.2,0-20.5,0.7-30.7,1.7c-0.8,0.1-1.5,0.4-2,0.8
		c-1.7,0-3.3,1.1-3.6,3.2c-0.7,9.4-0.1,18.8,1.6,28.1c1.2,6.1,2.5,10.3,9.4,10.7c9.4,0.4,18.9,0,28.5,0c5,0,10.3,0.3,15.4,0
		c2.4-0.1,4.5-0.4,6.2-2.3c2.1-2.3,1.9-5.4,2-8.3c0.1-5.2,0.3-10.5,0.3-15.6C452.4,144.1,451.6,137.7,446.1,134.3z" style="fill:#F7D06F;"/>
	<path d="M463.7,161.4c-0.5-0.4-1.2-0.5-1.9-0.7c0-0.1-0.1-0.1-0.1-0.3c-1.3-1.2-3.4-1.3-4.8,0
		c-2.3,2.4-2.5,6.1-0.4,8.6c2,2.4,6,2.4,8.1,0.3C467,167,466.6,163.2,463.7,161.4z" style="fill:#EF86B0;"/>
	<path d="M462.4,138.7c-2.9-0.5-5.6,0.8-6.6,3.6c-0.1,0.4-0.1,0.9-0.1,1.5c-0.1,0.5-0.1,0.9,0,1.5
		c1.6,5.7,11,4.6,11-1.3C466.7,141.2,464.7,139.2,462.4,138.7z" style="fill:#EF86B0;"/>
	<path d="M372.1,274.6c-6.6-4.2-13.4-8.6-20-12.8H352c0-3.4-5.6-4.8-6.6-0.9c-4.4,16.3-16.7,28.3-24.2,43.2
		c-3,6.2-12.8,29.8,0.4,31c5.8,0.5,11.6-4.5,15.9-7.8c5.3-4,10.3-8.5,14.8-13.4c9.4-10.3,16.5-22.4,21.4-35.5
		C374.1,277,373.1,275.3,372.1,274.6z" style="fill:#74A2D6;"/>
	<path d="M529.2,296.3c-6.5-11.1-12.8-22.1-19.3-33.2c-1.5-6-3.6-13.1-9.7-12.7c-3.7,0.3-7.8,3-11,4.8
		c-4.8,2.6-9.4,5.6-13.8,8.9c-0.7,0.5-1.1,1.2-1.3,2c-0.5,0.9-0.7,2.1-0.1,3.3c5,10.3,12.4,18.8,21.7,25.5c0,0,0.1,0,0.1,0.1
		c1.7,2,3.4,4,5.3,5.8c4.9,5.3,9.9,10.2,15.2,15.1c3.7,3.3,8.1,7.8,13.5,7c4.4-0.7,7.1-4.6,7.3-8.7
		C537.3,307.7,532.2,301.5,529.2,296.3z" style="fill:#74A2D6;"/>
	<path d="M440.2,222.3c-4.2-11.3-17.2-20.1-28.6-12.4c-1.2,0.8-1.6,2-1.5,3c-6.5,8.1-6.4,23.8-3.8,32
		c3,10.1,16.3,24.2,27.7,16.4C445.1,253.7,444.4,233.5,440.2,222.3z" style="fill:#F7D3BC;"/>
	<path d="M446.3,238.1c-0.8-1.3-1.9-2.5-3.4-3.3c-0.7-1.1-2-1.9-3.6-1.6c-0.9,0.1-1.7,0.3-2.6,0.4
		c-3.7,0.1-7.5,1.3-10.7,1.9c-0.5,0.1-0.9,0.3-1.3,0.5c-0.1,0-0.1-0.1-0.3-0.1c-4.4-1.6-15.8-6.9-20-3c-4.4,3.8-0.9,13.4,1.1,17.5
		c3,6.4,8.9,11.9,15.8,13.8c6.4,1.6,11.3-1.2,15.5-5.2c6.2,4.1,15.2,1.5,17.6-6.2C455.9,247.2,451.6,238.2,446.3,238.1z" style="fill:#57455D;"/>
	<path d="M455.1,196c-9.4-1.3-19.5-0.5-29-0.7c-9.5-0.3-19.2-0.9-28.7-0.7c-5.4,0.1-11.9,2.1-13,8.5
		c-0.4,2.4,0.4,4.5,1.9,6.1c0.3,1.5,1.3,2.6,3.2,2.5c20-1.2,39.3,0.1,59.2,1.7c5.6,0.4,11.8-0.7,14-6.5
		C465,200.9,460.8,196.8,455.1,196z" style="fill:#EF86B0;"/>
	<path d="M507.5,259.5c-9,3.8-18.1,7.5-27.1,11.4c-4.6,2-2.6,9.7,2.1,7.7c9-3.8,18.1-7.5,27.1-11.4
		C514.2,265.2,512.3,257.5,507.5,259.5z" style="fill:#57455D;"/>
	<path d="M368.2,283.4c-8.6-4.2-16.1-9.7-22.8-16.4c-3.6-3.7-9.1,2-5.6,5.6c7.1,7.3,15.2,13.2,24.5,17.7
		C368.8,292.4,372.7,285.5,368.2,283.4z" style="fill:#57455D;"/>
	<path d="M408.6,223.4c-5.2,0-5.2,7.9,0,7.9C413.8,231.3,413.8,223.4,408.6,223.4z" style="fill:#57455D;"/>
	<path d="M426.7,222.1h-0.4c-2.1,0-4.1,1.9-4,4s1.7,4,4,4h0.4c2.1,0,4.1-1.9,4-4C430.6,223.9,428.9,222.1,426.7,222.1z" style="fill:#57455D;"/>
	<path d="M423.2,212.8c-3.8-0.1-7.7-0.1-11.5,0.1c-5,0.4-5.2,8.3,0,7.9c3.8-0.3,7.7-0.3,11.5-0.1
		C428.3,221,428.3,213.1,423.2,212.8z" style="fill:#57455D;"/>
	<path d="M431.5,162.8c-1.9-0.1-4.1-0.9-5.6-1.1c-2.4-0.3-4.9-0.5-7.3-0.8c-5.7-0.5-11.4-0.7-17.1-0.5
		c-5.2,0-5.2,7.9,0,7.9c6.1-0.1,12.2,0.1,18.3,0.7c4.8,0.4,10.6,2.6,15.2,1.5c1.2-0.3,2.5-1.5,2.8-2.8l0.1-0.5
		C438.7,163,433.9,160.9,431.5,162.8z" style="fill:#57455D;"/>
	<path d="M434.4,142.4c-4.6-1.2-8.7-0.7-13.4,0c-6.1,0.9-12,1.1-18.1,0.7c-5.2-0.4-5,7.5,0,7.9
		c4.9,0.4,9.8,0.4,14.8-0.1c4.9-0.5,9.8-2,14.7-0.7C437.3,151.4,439.5,143.8,434.4,142.4z" style="fill:#57455D;"/>
	<path d="M431.9,350.2c-8.5,0.3-20.9,2.8-23.7,11c-4,11.4,11.9,13.4,19.2,12.6c7.9-0.8,22-4.5,23.3-14.3
		C452.2,348.6,439.7,348.6,431.9,350.2z M439.6,361.8c-4.2,2.6-9.7,4-14.4,4.2c-2.5,0.1-4.8,0.4-6.9-1.5c-2.8-0.9-2.9-1.7-0.4-2.6
		l2-1.1c3.2-1.5,6.5-2.3,9.8-2.6c0.7,0.3,1.5,0.3,2.3,0c0.3,0,0.5-0.1,0.8-0.3c0.7,0,1.3,0,2,0c1.3,0,2.3-0.4,2.9-1.2
		c0.7-0.1,1.3,0,1.9,0.1C442.8,358.4,441.8,360.4,439.6,361.8z" style="fill:#57455D;"/>
	<path d="M476.8,389.9c-3.6,0.3-7.1,0.7-10.7,0.9c-2.1,0.1-4,1.7-4,4c0,2,1.9,4.1,4,4c3.6-0.3,7.1-0.7,10.7-0.9
		c2.1-0.1,4-1.7,4-4C480.8,391.9,479,389.6,476.8,389.9z" style="fill:#57455D;"/>
	<path d="M381.9,392.3h-11.5c-5.2,0-5.2,7.9,0,7.9h11.5C386.9,400.2,386.9,392.3,381.9,392.3z" style="fill:#57455D;"/>
</g>
</svg>
